<svg xmlns="http://www.w3.org/2000/svg" viewBox="0 0 353.61 272.08"><defs><style>.cls-1{fill:#fff;}</style></defs><title>ssai_logo_white</title><g id="Layer_2" data-name="Layer 2"><g id="Layer_1-2" data-name="Layer 1"><path class="cls-1" d="M151,168.49c-6.84,0-13.68.08-20.51,0a13.93,13.93,0,0,1-7-1.76c-1.88-1.12-2.5-2.93-2.62-5a45.33,45.33,0,0,1,.59-7.87.93.93,0,0,1,.85-1c3.67-.76,7.34-1.57,11-2.36.81-.17,1.15.24.93,1.26-.26,1.25-.58,2.57-.92,3.72-.37,1.52,0,1.83,1.58,1.78,2-.07,4,0,6,0h30.21c2.25.09,2.68-.22,3-2.47.49-3,1.22-5.94,1.85-8.91.27-1.29,0-1.46-1.42-1.47a10.4,10.4,0,0,1-1.32,0c-11.56,0-23.11.06-34.67,0a15.35,15.35,0,0,1-7.42-1.66,6,6,0,0,1-3-5,24.55,24.55,0,0,1,.78-7.47q.67-3.23,1.33-6.45a24.16,24.16,0,0,1,3.12-8.31,10.47,10.47,0,0,1,7.61-4.69,61.56,61.56,0,0,1,9.67-.55c10.2,0,20.4,0,30.59.06a19.63,19.63,0,0,1,7.3,1c3.75,1.52,4.24,4.43,4.17,7.1a22.28,22.28,0,0,1-.5,4.76,2,2,0,0,1-1.59,1.52c-3.7.88-6.9,1.65-10.38,2.36-1.1.22-1-.54-.92-1.15.24-1.21.63-2.4.89-3.61.31-1.45.12-1.58-1.31-1.56-4.84,0-9.68,0-14.52,0H144.31a1.34,1.34,0,0,0-1.64,1.38c-.57,2.68-1.13,5.33-1.59,8-.23,1.11,0,0-.17.78-.25,1.35-.54,1.78,1.17,1.79q17.34,0,34.67,0a24.7,24.7,0,0,1,6.75.75c3.44,1,5.12,3.26,5.21,6.83s-.8,6.74-1.44,10.06a43.28,43.28,0,0,1-2.88,10.37A13,13,0,0,1,180.5,166a10,10,0,0,1-3.94,1.67,30.36,30.36,0,0,1-6.64.82c-6.28-.06-12.56,0-18.83,0h0Z"/><path class="cls-1" d="M74.57,168.43c-7,0-13.92.09-20.88,0a13.68,13.68,0,0,1-6.78-1.76,5.07,5.07,0,0,1-2.44-4,24.46,24.46,0,0,1,.71-9,1,1,0,0,1,.91-.82l10.68-2.21c.83-.17,1.25.13,1,1-.41,1.52-.58,2.8-1,4.31a.89.89,0,0,0,1,1.32H60q18,0,36,0a1.19,1.19,0,0,0,1.33-1v0c.94-3.55,1.49-7.19,2.3-10.77.21-.94-.31-1.2-1.14-1.19q-17.88,0-35.75.08a21.33,21.33,0,0,1-6-.85c-3.66-1.06-4.79-3-4.86-6.73-.09-4.58,1.27-8.92,2.16-13.34a25.09,25.09,0,0,1,2-6.22c2.14-4.34,5.78-6.3,10.49-6.57,12.3-.7,24.61-.12,36.92-.32a31.71,31.71,0,0,1,6.31.49c4.09.76,6.56,2.73,6.61,7.24a23.07,23.07,0,0,1-.7,5.46,1.36,1.36,0,0,1-1.16,1.2A71.45,71.45,0,0,1,104.24,127c-1.45.21-1.36-.24-1.11-1.33.39-1.39.23-.86.95-3.83.16-.72-.09-.92-.71-.92h-1.8q-17,0-34,0a1,1,0,0,0-1.29,1c-.47,3.21-1.28,6.34-2,9.5-.28,1.25-.18,1.46,1.15,1.47,4.12,0,8.24.06,12.36.06h23.4c2.83,0,5.67.19,8.23,1.73a5.48,5.48,0,0,1,2.72,4.52,31.23,31.23,0,0,1-1.27,10.66c-.57,2.21-.76,4.49-1.41,6.68-.87,2.93-1.82,5.77-4,8.07a11.49,11.49,0,0,1-6.25,3.31,24.26,24.26,0,0,1-5.23.55c-6.48-.06-13,0-19.44,0h0Z"/><path class="cls-1" d="M259.13,168.49c-2.08,0-4.16,0-6.24,0a1.43,1.43,0,0,1-1.64-1c-1-2.75-2-5.46-2.88-8.24-1-3.38-1-3.4-4.45-3.41H212.25A2.52,2.52,0,0,0,210,157c-2.6,3.59-5.26,7.14-7.9,10.7a2.17,2.17,0,0,1-1.9.81H189c-.34,0-.8.15-1-.28a1,1,0,0,1,.37-1c1.23-1.32,2.26-2.8,3.36-4.22q9.3-12,18.61-23.94c3.34-4.29,6.71-8.55,10-12.85s6.54-8.38,9.69-12.66c1.61-2.19,3-3.35,6.32-3.26,4-.09,5.42,0,8.38,0a1.34,1.34,0,0,1,1.49,1c1.42,4.07,2.93,8.11,4.38,12.17,1.91,5.33,3.8,10.67,5.72,16,1.47,4.09,3,8.16,4.48,12.24s2.83,7.88,4.25,11.82c.45,1.24.91,2.47,1.37,3.71.32.88,0,1.23-.92,1.21-2.16,0-4.32,0-6.47,0h0ZM231.33,145h10.92c1.12,0,1.53-.39,1.14-1.34-1.11-2.71-1.69-5.57-2.71-8.31a63.28,63.28,0,0,1-2.22-7c-.42-1.72-1.17-3.3-1.64-5-.27-1-.86-1-1.42-.16-2.56,3.73-5.37,7.26-8.11,10.86q-3.63,4.77-7.3,9.51a.76.76,0,1,0,.65,1.35h10.68Z"/><path class="cls-1" d="M280.66,168.48h-5.52c-.94,0-1.19-.27-1-1.29.64-4,1.78-7.87,2.5-11.84.94-5.18,2.37-10.27,3.34-15.45.85-4.52,2-9,2.8-13.5.87-4.67,1.93-9.31,2.92-14a9.92,9.92,0,0,1,.47-1.48,1.08,1.08,0,0,1,1.21-.74h10.9c1.46-.1,1.64.13,1.35,1.52-1.13,5.47-2.23,11-3.39,16.43s-2.46,10.66-3.46,16c-.77,4.16-1.86,8.25-2.57,12.43-.59,3.46-1.58,6.85-2.2,10.32a1.73,1.73,0,0,1-1.89,1.55H286C284.18,168.42,282.45,168.48,280.66,168.48Z"/><path class="cls-1" d="M344.93,34c-30.14-49.7-129.85-44.34-222.7,12S-21.46,188.29,8.69,238s129.85,44.34,222.7-12S375.07,83.73,344.93,34ZM223.26,225.86c-88.94,46.26-181.81,43.8-207.44-5.49s25.63-126.74,114.63-173S312.24,3.57,337.87,52.87,312.19,179.57,223.26,225.86Z"/></g></g></svg>